<svg version="1.1" xmlns="http://www.w3.org/2000/svg" xmlns:xlink="http://www.w3.org/1999/xlink" x="0px" y="0px" width="189px" height="54px" viewBox="0 0 189 54" style="enable-background:new 0 0 189 54;" xml:space="preserve">
  <style type="text/css">
    .st0{fill:#ffffff;}
    .st1{fill:#ffffff;}
  </style>
  <g>
    <path class="st0" d="M177.16,9.81c2.7,0,4.9-2.2,4.9-4.91c0-2.71-2.2-4.91-4.9-4.91c-2.71,0-4.92,2.19-4.92,4.91   C172.23,7.61,174.44,9.81,177.16,9.81z M177.16,0.95c2.05,0,3.71,1.65,3.71,3.96c0,2.3-1.65,3.96-3.71,3.96   c-2.06,0-3.72-1.66-3.72-3.96C173.43,2.6,175.1,0.95,177.16,0.95z"/>
    <path class="st0" d="M176.3,5.27h0.62l1.44,2.39h1.06l-1.5-2.43c0.91-0.08,1.46-0.54,1.46-1.5c0-1.17-0.72-1.64-2.05-1.64h-2.07   v5.57h1.04V5.27z M176.3,2.89h0.92c0.53,0,1.12,0.11,1.12,0.76c0,0.75-0.53,0.83-1.14,0.83h-0.91V2.89z"/>
    <path class="st0" d="M164.41,20.56c0.77,0,1.72,0.12,2.03,1.58l-0.4,2.79l-14.98,0.83c-4.14,0.29-10.67,0.7-12.25,1.68   c-1.96,1.22-2.63,3.71-3.26,6.36c-0.16,0.65-3.37,17.74-3.37,17.74h36.64l6.25-27.69c0.2-1.31,0.25-2.25,0.26-2.95   c0.02-2.54-0.86-4.68-2.58-6.4c-1.68-1.68-3.85-2.65-6.39-2.65h-22.67l-10.59,8.98L164.41,20.56z M162.17,42.32h-19.34l0.93-6.04   c0,0,0.06-1.87,2.04-2.19c1.64-0.26,18.32-1.02,18.32-1.02L162.17,42.32z"/>
    <path class="st0" d="M40.03,42.54H11.56c-0.73,0-2.28,0.09-1.78-1.1l1.07-3.23c0,0,24.4-1.46,24.75-1.52   c0.35-0.06,2.71-0.02,3.98-0.97c1.21-0.9,2.41-2.71,2.78-4.07l2.2-8.56c0.09-0.34,0.16-0.71,0.23-1.1   c0.06-0.39,0.12-0.82,0.16-1.29c0.17-2.46-0.01-4.57-1.91-6.33c-1.85-1.64-4.69-2.45-7.14-2.45H15.57c-2.03,0-3.85,0.62-5.49,1.87   c-1.55,1.25-2.58,2.86-3.1,4.85L1.48,40.35c-0.21,0.78-0.61,2.05-0.8,2.72c-0.92,3.19-1.21,5.19,1.09,7.39   c1.72,1.65,7.92,1.07,11.02,1.07H37.7L40.03,42.54z M15.18,22.51c0.26-1.12,0.99-1.68,2.2-1.68h15.67c1.47,0.17,2.2,0.93,2.20,2.26   c0,0.22-0.7,3.8-0.74,3.97c0,0-0.59,2.08-1.36,2.10L12.82,30.1L15.18,22.51z"/>
    <path class="st0" d="M51.01,51.53l7.82-30.63h8.66l-7.82,30.63h10.6l7.82-30.63h7.17c0.77,0,1.16,0.39,1.16,1.16   c0,0.13-7.5,29.47-7.5,29.47h10.6l7.24-28.37c0.17-0.65,0.26-1.4,0.26-2.26c0-2.54-0.86-4.68-2.58-6.4   c-1.68-1.68-3.86-2.65-6.4-2.65H50.3l-9.89,39.68H51.01z"/>
    <path class="st0" d="M140.33,11.85h-14.31L110.2,26.16l6.4-25.85h-11.5L92.2,51.53h11.29l4.14-15.7l10.08,15.7h12.63   c0,0-12.42-17.52-13.67-19.16L140.33,11.85z"/>
    <ellipse transform="matrix(0.9732 -0.2298 0.2298 0.9732 -6.0405 43.2936)" class="st1" cx="182.89" cy="47.59" rx="6.11" ry="6.11"/>
  </g>
</svg>
